<?xml version="1.0" standalone="no"?><!DOCTYPE svg PUBLIC "-//W3C//DTD SVG 1.1//EN" "http://www.w3.org/Graphics/SVG/1.1/DTD/svg11.dtd"><svg t="1738567461663" class="icon" viewBox="0 0 1024 1024" version="1.1" xmlns="http://www.w3.org/2000/svg" p-id="2520" xmlns:xlink="http://www.w3.org/1999/xlink" width="200" height="200"><path d="M273.337903 509.02465h90.378288V307.385328h-70.533484V277.610376h483.215561v29.774952h-70.517993v201.639322h90.889513v30.301669h-90.889513v241.344422h-80.448141V539.326319h-181.25231q0 138.433388-70.517993 203.730695-35.01113 32.904266-70.006768 37.613727l-10.441373-19.844804q17.753431-15.166326 35.522355-50.673189 34.995638-70.517993 34.995638-170.826429h-90.39378zM444.164332 307.385328v201.639322h181.25231V307.385328z" fill="#231815" p-id="2521"></path><path d="M512.017761 1023.998095A511.999047 511.999047 0 0 1 149.97789 149.959176a512.002146 512.002146 0 0 1 724.079742 724.079742A508.652851 508.652851 0 0 1 512.017761 1023.998095z m0-957.383998C266.428627 66.614097 66.632811 266.456388 66.632811 511.999047S266.475102 957.383998 512.017761 957.383998 957.402712 757.541707 957.402712 511.999047 757.606896 66.614097 512.017761 66.614097z" fill="#231815" p-id="2522"></path></svg>