<?xml version="1.0" encoding="utf-8"?>
<!-- Generator: Adobe Illustrator 27.0.0, SVG Export Plug-In . SVG Version: 6.00 Build 0)  -->
<svg version="1.1" id="图层_1" xmlns="http://www.w3.org/2000/svg" xmlns:xlink="http://www.w3.org/1999/xlink" x="0px" y="0px"
	 viewBox="0 0 464.72 501" style="enable-background:new 0 0 464.72 501;" xml:space="preserve">
<g>
	<path d="M235.25,22.26c6.32,0,15.3-0.73,24.08,0.25c5.9,0.66,12.41,2.55,17.1,5.99c8.51,6.22,16.79,7.49,26.78,4.73
		c16.3-4.51,32.42-3.11,47.81,4.14c23.48,11.04,31.56,30.46,22.84,54.83c-5.58,15.59-14.84,29.03-24.73,42.09
		c-4.37,5.78-8.76,11.54-12.97,17.43c-2.27,3.18-2.09,5.99,1.75,8.22c24.87,14.49,33.51,37.54,33.91,64.86
		c0.41,28.46-5.37,55.93-13.41,83c-13.29,44.68-30.06,88.06-51.29,129.54c-7.08,13.84-16.37,26.83-26.29,38.86
		c-9.28,11.27-22.31,16.17-36.82,10.36c-5.53-2.21-10.57-6.5-14.84-10.82c-29.08-29.44-52.25-62.56-67.43-101.58
		c-14.3-36.77-26.52-73.85-32.43-112.94c-3.34-22.1,0.24-43.36,7.46-64.03c2.31-6.58,1.16-10.18-3.88-14.3
		c-9.59-7.83-19.58-15.41-27.92-24.47c-15.45-16.74-19.49-37.61-17.09-59.59c2-18.27,16.95-31.23,37.55-33.93
		c5.53-0.73,11.14-1.24,16.69-1.12c7.7,0.17,12.74-3.25,16.84-9.51c4.29-6.53,8.88-12.99,14.16-18.73
		c6.19-6.72,14.01-10.53,23.57-10.83C208.73,24.32,220.69,23.23,235.25,22.26z M265.22,162.84c-19.07,0.67-42.8,2.07-65.84,8.81
		c-26.83,7.84-50.37,27.36-51.41,64.91c-0.71,25.59,3.44,50.24,9.86,74.74c1.91,7.32,2.31,7.07,9.86,5.38
		c13.25-2.98,26.56-6.07,40.01-7.68c9.33-1.12,18.95-0.04,28.42,0.63c1.69,0.12,4.1,2.88,4.45,4.74c0.24,1.3-2.17,3.74-3.92,4.62
		c-2.32,1.17-5.15,1.33-7.78,1.91c-13.08,2.93-26.53,4.77-39.15,9.05c-19.74,6.71-21.49,11.9-14.27,31.66
		c3.23,8.84,4.98,9.97,14.61,10.18c5.56,0.11,11.15,0.26,16.66,1.01c1.86,0.25,4.63,2.17,4.88,3.69c0.27,1.61-1.53,4.27-3.15,5.37
		c-4.09,2.76-8.66,4.81-12.93,7.29c-7.15,4.16-8.19,6.04-3.59,12.67c13.77,19.86,28.03,39.37,42.34,58.86
		c2.15,2.92,5.4,5.12,8.4,7.29c11.4,8.27,17.59,7.83,27.96-1.69c11.35-10.42,18.89-23.52,25.55-37.11
		c23.33-47.62,38.94-97.86,49.81-149.63c4.68-22.28,8.5-44.73,6.3-67.72c-1.7-17.91-9.87-31.01-26.64-38.78
		C307.85,164.83,289.17,162.68,265.22,162.84z M172.2,85.79c0,3.92-0.21,7.86,0.04,11.77c1.06,16.57,2.97,32.88,11.86,47.6
		c3.44,5.69,7.59,8.33,14.22,7.18c11.19-1.94,22.39-3.73,33.61-5.51c10.11-1.61,12.01-2.96,13.44-13
		c3.07-21.57,8.47-42.47,16.59-62.7c2.46-6.11,4.55-12.41,6.37-18.74c1.94-6.74,0.26-10.06-6.14-12.83
		c-2.42-1.06-5.12-2.02-7.71-2.07c-13.59-0.25-27.3-1.37-40.74,0.01C184.87,40.45,170.95,57.2,172.2,85.79z M319.29,44.87
		c-15.59-1.38-28.21,7.35-35.19,22.48c-9.58,20.77-17.61,42.28-25.51,63.76c-3.33,9.05-0.15,12.94,9.59,14.45
		c9.4,1.44,19.15,1.47,28.22,4.01c16.58,4.67,27.46-2.29,36.41-15.03c0.24-0.34,0.55-0.62,0.81-0.94
		c12.89-16.1,24.01-33.18,29.18-53.48c1.61-6.36,0.58-11.99-3.08-17.66C350.6,48.32,336.82,45.15,319.29,44.87z M108.76,114.52
		c1.93,21.13,11.44,42.27,32.21,57.59c5.01,3.69,9.71,4.04,14.81,0.53c4.77-3.28,9.44-6.77,14.46-9.61
		c4.89-2.77,4.42-5.45,2.02-9.95c-4.92-9.23-10.53-18.52-13.04-28.48c-3.24-12.92-4.01-26.49-5.29-39.83
		c-0.52-5.38-2.37-7.55-7.74-6.57c-4.87,0.89-9.86,1.3-14.66,2.5C115.08,84.78,108.42,93.61,108.76,114.52z"/>
</g>
</svg>
